<svg xmlns="http://www.w3.org/2000/svg" width="41" height="37"><path d="M19.9.009a2.958 2.958 0 00-2.94 2.381h-.08L7.23 13.131h4.83l6.67-7.42a3.023 3.023 0 001.17.263 3.065 3.065 0 001.17-.263l6.67 7.42h4.83L22.91 2.39h-.08A2.939 2.939 0 0019.9.009zM2.41 15.514a2.4 2.4 0 00-2.42 2.389V19.1a2.371 2.371 0 002.23 2.349l3.8 13.158c1.21 2.388 2.42 2.388 3.62 2.388h21.72c1.21 0 2.41 0 3.62-2.388l3.81-13.158a2.37 2.37 0 002.22-2.349v-1.2a2.392 2.392 0 00-2.41-2.389H2.41zm6.78 5.965h.6a3.1 3.1 0 012.94 2.237l1.7 7.422a1.826 1.826 0 01-1.92 2.271h-.61a3.14 3.14 0 01-2.94-2.271l-1.69-7.422a1.8 1.8 0 011.92-2.237zm11.31 0a2.392 2.392 0 012.41 2.389v7.157a2.41 2.41 0 01-4.82 0v-7.157a2.4 2.4 0 012.41-2.389zm10.71 0h.6a1.8 1.8 0 011.92 2.237l-1.69 7.422a3.13 3.13 0 01-2.94 2.271h-.61a1.826 1.826 0 01-1.92-2.271l1.7-7.422a3.1 3.1 0 012.94-2.237z" fill="#3cc3b5" fill-rule="evenodd"/></svg>